<?xml version="1.0" encoding="UTF-8" standalone="no"?>
<!DOCTYPE svg PUBLIC "-//W3C//DTD SVG 1.0//EN"
 "http://www.w3.org/TR/2001/REC-SVG-20010904/DTD/svg10.dtd" [
 <!ATTLIST svg xmlns:xlink CDATA #FIXED "http://www.w3.org/1999/xlink">
]>
<!-- Generated by Graphviz version 2.20.2 (Tue Mar &#160;2 21:46:26 UTC 2010)
     For user: (root) root -->
<!-- Title: G Pages: 1 -->
<svg width="330pt" height="214pt"
 viewBox="0.00 0.00 330.00 214.00" xmlns="http://www.w3.org/2000/svg" xmlns:xlink="http://www.w3.org/1999/xlink">
<g id="graph0" class="graph" transform="scale(1 1) rotate(0) translate(4 210)">
<title>G</title>
<polygon style="fill:white;stroke:white;" points="-4,4 -4,-210 326,-210 326,4 -4,4"/>
<g id="cluster2" class="cluster"><title>cluster_global</title>
<polyline style="fill:none;stroke:gray;" points="198,-16 302,-16 "/>
<path style="fill:none;stroke:gray;" d="M302,-16C308,-16 314,-22 314,-28"/>
<polyline style="fill:none;stroke:gray;" points="314,-28 314,-186 "/>
<path style="fill:none;stroke:gray;" d="M314,-186C314,-192 308,-198 302,-198"/>
<polyline style="fill:none;stroke:gray;" points="302,-198 198,-198 "/>
<path style="fill:none;stroke:gray;" d="M198,-198C192,-198 186,-192 186,-186"/>
<polyline style="fill:none;stroke:gray;" points="186,-186 186,-28 "/>
<path style="fill:none;stroke:gray;" d="M186,-28C186,-22 192,-16 198,-16"/>
<text text-anchor="middle" x="250" y="-184.1" style="font-family:Times New Roman;font-size:11.00;fill:gray;">global</text>
</g>
<!-- \\Bitly -->
<g id="node2" class="node"><title>\\Bitly</title>
<a xlink:href="Bitly.class.html" xlink:title="Bitly" target="_parent">
<polygon style="fill:none;stroke:black;" points="277,-168 223,-168 223,-132 277,-132 277,-168"/>
<text text-anchor="middle" x="250" y="-147.1" style="font-family:Courier;font-size:11.00;">Bitly</text>
</a>
</g>
<!-- \\BitlyResponse -->
<g id="node3" class="node"><title>\\BitlyResponse</title>
<a xlink:href="Bitly.class.html" xlink:title="BitlyResponse" target="_parent">
<polygon style="fill:none;stroke:black;" points="302,-114 198,-114 198,-78 302,-78 302,-114"/>
<text text-anchor="middle" x="250" y="-93.1" style="font-family:Courier;font-size:11.00;">BitlyResponse</text>
</a>
</g>
<!-- \\BitlyException -->
<g id="node4" class="node"><title>\\BitlyException</title>
<a xlink:href="Bitly.class.html" xlink:title="BitlyException" target="_parent">
<polygon style="fill:none;stroke:black;" points="305,-60 195,-60 195,-24 305,-24 305,-60"/>
<text text-anchor="middle" x="250" y="-39.1" style="font-family:Courier;font-size:11.00;">BitlyException</text>
</a>
</g>
<!-- \\Exception -->
<g id="node6" class="node"><title>\\Exception</title>
<ellipse style="fill:none;stroke:black;" cx="61" cy="-42" rx="61.1496" ry="18"/>
<text text-anchor="middle" x="61" y="-37.9" style="font-family:Times New Roman;font-size:14.00;fill:gray;">\Exception</text>
</g>
<!-- \\BitlyException&#45;&gt;\\Exception -->
<g id="edge3" class="edge"><title>\\BitlyException&#45;&gt;\\Exception</title>
<path style="fill:none;stroke:black;" d="M194,-42C175,-42 153,-42 132,-42"/>
<polygon style="fill:none;stroke:black;" points="132,-38.5001 122,-42 132,-45.5001 132,-38.5001"/>
</g>
</g>
</svg>
